# xmcd
#
# Track frame offsets: 
#        182
#        17830
#        45410
#        68512
#
# Disc length: 1150 seconds
#
# Revision: 3
# Processed by: cddbd v1.5.1PL0 Copyright (c) Steve Scherf et al.
# Submitted via: ExactAudioCopy v0.95a5
#
DISCID=26047c04
DTITLE=Backstreet Boys - Quit playing games (SingleCD)
DYEAR=1900
DGENRE=
TTITLE0=Quit playing games with my heart (video version)
TTITLE1=Nobody but you (long version)
TTITLE2=Give me your Heart
TTITLE3=Quit playing games with my heart (acoustic version)
EXTD=
EXTT0=
EXTT1=
EXTT2=
EXTT3=
PLAYORDER=
